<svg xmlns="http://www.w3.org/2000/svg" viewBox="0 -78.10 385.11 85.20"><g transform="translate(-13.364705882352942 -91.46470588235293) scale(1.6705882352941177)"><clipPath id="lk"><path d="M8 8H56V31C56 45 45.5 53.5 32 59C18.5 53.5 8 45 8 31Z"/></clipPath>
<g clip-path="url(#lk)" fill="#FFFFFF"><rect x="8" y="8" width="48" height="10"/><rect x="8" y="23" width="21.5" height="40"/><rect x="34.5" y="23" width="21.5" height="40"/></g></g><path transform="translate(110.01 0)" fill="#FFFFFF" d="M28.400000000000002 0.0Q20.400000000000002 0.0 16.650000000000002 -3.6500000000000004Q12.9 -7.300000000000001 12.9 -15.3V-43.5H4.5V-53.400000000000006H12.9V-65.9H25.700000000000003V-53.400000000000006H39.800000000000004V-43.5H25.700000000000003V-16.5Q25.700000000000003 -12.700000000000001 27.35 -11.3Q29.0 -9.9 32.300000000000004 -9.9H39.800000000000004V0.0Z M47.7 0.0V-71.0H60.5V-46.300000000000004Q62.7 -50.5 66.7 -52.55Q70.7 -54.6 75.7 -54.6Q84.60000000000001 -54.6 89.20000000000002 -48.95Q93.80000000000001 -43.300000000000004 93.80000000000001 -34.300000000000004V0.0H81.0V-31.200000000000003Q81.0 -44.2 71.9 -44.2Q66.60000000000001 -44.2 63.550000000000004 -40.8Q60.5 -37.4 60.5 -30.900000000000002V0.0Z M128.9 1.2000000000000002Q120.9 1.2000000000000002 115.0 -2.25Q109.10000000000001 -5.7 105.9 -12.0Q102.70000000000002 -18.3 102.70000000000002 -26.700000000000003Q102.70000000000002 -35.1 105.9 -41.400000000000006Q109.10000000000001 -47.7 114.95000000000002 -51.150000000000006Q120.80000000000001 -54.6 128.60000000000002 -54.6Q136.20000000000002 -54.6 141.90000000000003 -51.2Q147.60000000000002 -47.800000000000004 150.75 -41.400000000000006Q153.9 -35.0 153.9 -26.0V-23.1H116.00000000000001Q116.30000000000001 -16.1 119.80000000000001 -12.55Q123.30000000000001 -9.0 129.0 -9.0Q137.70000000000002 -9.0 140.10000000000002 -16.400000000000002L153.20000000000002 -15.600000000000001Q151.0 -7.800000000000001 144.55 -3.3000000000000003Q138.10000000000002 1.2000000000000002 128.9 1.2000000000000002ZM116.00000000000001 -31.700000000000003H140.70000000000002Q140.20000000000002 -38.2 136.95000000000002 -41.35Q133.70000000000002 -44.5 128.60000000000002 -44.5Q123.4 -44.5 120.10000000000001 -41.2Q116.80000000000001 -37.9 116.00000000000001 -31.700000000000003Z M191.60000000000002 1.2000000000000002Q186.0 1.2000000000000002 181.8 -1.2Q177.60000000000002 -3.6 175.4 -7.9L175.10000000000002 0.0H162.9V-71.0H175.70000000000002V-45.800000000000004Q177.8 -49.400000000000006 181.95000000000002 -52.0Q186.10000000000002 -54.6 191.60000000000002 -54.6Q198.5 -54.6 203.55 -51.150000000000006Q208.60000000000002 -47.7 211.35000000000002 -41.45Q214.10000000000002 -35.2 214.10000000000002 -26.700000000000003Q214.10000000000002 -18.2 211.35000000000002 -11.95Q208.60000000000002 -5.7 203.55 -2.25Q198.5 1.2000000000000002 191.60000000000002 1.2000000000000002ZM188.70000000000002 -9.200000000000001Q194.20000000000002 -9.200000000000001 197.5 -13.850000000000001Q200.8 -18.5 200.8 -26.700000000000003Q200.8 -35.0 197.55 -39.6Q194.3 -44.2 188.8 -44.2Q182.60000000000002 -44.2 179.15000000000003 -39.6Q175.70000000000002 -35.0 175.70000000000002 -26.700000000000003Q175.70000000000002 -18.5 179.15000000000003 -13.850000000000001Q182.60000000000002 -9.200000000000001 188.70000000000002 -9.200000000000001Z M246.1 1.2000000000000002Q238.1 1.2000000000000002 232.2 -2.25Q226.3 -5.7 223.10000000000002 -12.0Q219.9 -18.3 219.9 -26.700000000000003Q219.9 -35.1 223.10000000000002 -41.400000000000006Q226.3 -47.7 232.15 -51.150000000000006Q238.0 -54.6 245.8 -54.6Q253.4 -54.6 259.1 -51.2Q264.8 -47.800000000000004 267.95000000000005 -41.400000000000006Q271.1 -35.0 271.1 -26.0V-23.1H233.2Q233.5 -16.1 237.0 -12.55Q240.5 -9.0 246.2 -9.0Q254.9 -9.0 257.3 -16.400000000000002L270.4 -15.600000000000001Q268.2 -7.800000000000001 261.75 -3.3000000000000003Q255.3 1.2000000000000002 246.1 1.2000000000000002ZM233.2 -31.700000000000003H257.9Q257.4 -38.2 254.14999999999998 -41.35Q250.9 -44.5 245.8 -44.5Q240.6 -44.5 237.3 -41.2Q234.0 -37.9 233.2 -31.700000000000003Z"/></svg>